<svg xmlns="http://www.w3.org/2000/svg" width="374" height="90" viewBox="0 0 374 90">
  <g fill-rule="evenodd" transform="translate(3 23)">
    <g fill-rule="nonzero" transform="translate(0 .81)">
      <path d="M29.5466812 15.669488C25.739825 12.1118503 19.5676916 12.1118503 15.7608353 15.669488 11.9539791 19.2271256 11.9539791 24.9951959 15.7608353 28.5528336 19.5676916 32.1104712 25.739825 32.1104712 29.5466812 28.5528336L36.4396042 22.1111608 29.5466812 15.669488zM38.3585214 6.24036344L55.3410951 22.1111608 38.3585214 37.9819581C29.5915209 46.1750206 15.7159957 46.1750206 6.9489952 37.9819581-2.31633173 29.3231925-2.31633173 14.8991291 6.9489952 6.24036344 15.7159957-1.95269905 29.5915209-1.95269905 38.3585214 6.24036344zM81.2904482 15.669488L74.3975252 22.1111608 81.2904482 28.5528336C85.0973044 32.1104712 91.2694379 32.1104712 95.0762941 28.5528336 98.8831504 24.9951959 98.8831504 19.2271256 95.0762941 15.669488 91.2694379 12.1118503 85.0973044 12.1118503 81.2904482 15.669488zM72.4786081 6.24036344C81.2456085-1.95269905 95.1211338-1.95269905 103.888134 6.24036344 113.153461 14.8991291 113.153461 29.3231925 103.888134 37.9819581 95.1211338 46.1750206 81.2456085 46.1750206 72.4786081 37.9819581L55.4960344 22.1111608 72.4786081 6.24036344z"/>
    </g>
    <path d="M122.888054,23.1960047 L130.439478,23.1960047 C130.439478,24.9701434 130.928496,26.3537991 131.906547,27.3470134 C132.884597,28.3402278 134.11662,28.8368275 135.60265,28.8368275 C136.876391,28.8368275 137.91508,28.4880705 138.71875,27.7905459 C139.52242,27.0930213 139.924248,26.1680569 139.924248,25.015625 C139.924248,24.3635911 139.79536,23.8101289 139.537579,23.3552215 C139.279798,22.9003142 138.92346,22.5022762 138.468552,22.1610957 C138.013645,21.8199152 137.475346,21.5166482 136.853639,21.2512856 C136.231933,20.985923 135.564745,20.7167735 134.852057,20.4438291 C133.396353,19.9131039 132.008907,19.3672233 130.689676,18.8061709 C129.370444,18.2451185 128.199076,17.5779311 127.175534,16.8045886 C126.151993,16.0312461 125.336962,15.1024909 124.730419,14.0182951 C124.123876,12.9340993 123.820609,11.5959336 123.820609,10.0037579 C123.820609,8.39641865 124.13904,6.99380873 124.77591,5.79588608 C125.41278,4.59796342 126.258137,3.61234564 127.312006,2.83900316 C128.365874,2.06566069 129.590315,1.49324421 130.985364,1.12173655 C132.380413,0.750228891 133.828513,0.564477848 135.329707,0.564477848 C137.225155,0.564477848 138.893123,0.841208994 140.333663,1.39467959 C141.774203,1.94815018 142.98348,2.70631771 143.961531,3.66920491 C144.939582,4.6320921 145.671213,5.73522585 146.156448,6.97863924 C146.641682,8.22205263 146.884296,9.54126412 146.884296,10.9363133 L139.332872,10.9363133 C139.332872,9.48060981 138.984115,8.33198601 138.28659,7.49040744 C137.589066,6.64882886 136.573121,6.22804589 135.238726,6.22804589 C134.177276,6.22804589 133.259893,6.50856787 132.486551,7.06962025 C131.713208,7.63067264 131.326543,8.45707524 131.326543,9.54885285 C131.326543,10.6103033 131.728372,11.4632418 132.532041,12.1076938 C133.335711,12.7521459 134.480544,13.3397257 135.966574,13.8704509 C137.391951,14.370849 138.798351,14.9015663 140.185819,15.4626187 C141.573286,16.0236711 142.801518,16.6984402 143.87055,17.4869462 C144.939582,18.2754523 145.800102,19.238325 146.452136,20.3755934 C147.10417,21.5128617 147.430182,22.9154716 147.430182,24.5834652 C147.430182,26.1604773 147.126915,27.5896231 146.520372,28.8709454 C145.913829,30.1522677 145.076054,31.2326565 144.007021,32.112144 C142.937989,32.9916315 141.664268,33.6664006 140.185819,34.1364715 C138.70737,34.6065424 137.103846,34.8415744 135.375198,34.8415744 C133.540405,34.8415744 131.861064,34.5837974 130.337124,34.0682358 C128.813185,33.5526741 127.501555,32.7982974 126.402195,31.8050831 C125.302836,30.8118687 124.442316,29.5950098 123.820609,28.1544699 C123.198902,26.71393 122.888054,25.0611248 122.888054,23.1960047 Z M150.036788,44.1443829 L150.036788,11.5504351 L157.156052,11.5504351 L157.156052,14.7575158 C157.717105,13.7263925 158.619324,12.8393365 159.862737,12.0963212 C161.106151,11.3533059 162.614904,10.9818038 164.389043,10.9818038 C165.875073,10.9818038 167.26252,11.2850708 168.551424,11.8916139 C169.840328,12.498157 170.966207,13.3207688 171.929094,14.3594739 C172.891981,15.398179 173.646358,16.6415737 174.192247,18.0896954 C174.738136,19.5378171 175.011076,21.0958514 175.011076,22.7638449 C175.011076,24.4470021 174.738136,26.0088272 174.192247,27.4493671 C173.646358,28.889907 172.891981,30.1333017 171.929094,31.1795886 C170.966207,32.2258755 169.840328,33.0522781 168.551424,33.6588212 C167.26252,34.2653643 165.875073,34.5686313 164.389043,34.5686313 C162.614904,34.5686313 161.106151,34.1933384 159.862737,33.4427413 C158.619324,32.6921442 157.717105,31.808879 157.156052,30.7929193 L157.156052,44.1443829 L150.036788,44.1443829 Z M157.156052,22.7638449 C157.156052,23.5371874 157.288732,24.2764007 157.554094,24.9815071 C157.819457,25.6866135 158.187168,26.2931475 158.657239,26.8011274 C159.12731,27.3091072 159.688354,27.7185177 160.340388,28.029371 C160.992422,28.3402244 161.720262,28.4956487 162.523932,28.4956487 C163.327602,28.4956487 164.055442,28.3402244 164.707476,28.029371 C165.35951,27.7185177 165.920554,27.3091072 166.390625,26.8011274 C166.860696,26.2931475 167.228407,25.6904043 167.49377,24.9928797 C167.759132,24.2953552 167.891812,23.552351 167.891812,22.7638449 C167.891812,21.9905025 167.759132,21.25508 167.49377,20.5575554 C167.228407,19.8600308 166.860696,19.2534968 166.390625,18.7379351 C165.920554,18.2223735 165.35951,17.812963 164.707476,17.5096915 C164.055442,17.2064199 163.327602,17.0547864 162.523932,17.0547864 C161.720262,17.0547864 160.992422,17.2064199 160.340388,17.5096915 C159.688354,17.812963 159.12731,18.2223735 158.657239,18.7379351 C158.187168,19.2534968 157.819457,19.8600308 157.554094,20.5575554 C157.288732,21.25508 157.156052,21.9905025 157.156052,22.7638449 Z M177.094541,35.7286392 L184.077334,35.7286392 C184.107661,36.8204169 184.456418,37.7226362 185.123616,38.4353244 C185.790813,39.1480125 186.920483,39.5043513 188.512658,39.5043513 C189.998689,39.5043513 191.105613,39.0987316 191.833465,38.2874802 C192.561317,37.4762288 192.925237,36.1228998 192.925237,34.2274525 L192.925237,30.40625 C192.303531,31.6193362 191.355821,32.559464 190.082081,33.2266614 C188.80834,33.8938588 187.292005,34.2274525 185.53303,34.2274525 C183.986345,34.2274525 182.712624,33.9886298 181.711828,33.5109771 C180.711031,33.0333244 179.899792,32.4229995 179.278085,31.6799842 C178.565397,30.8156602 178.099124,29.8148791 177.879252,28.6776108 C177.65938,27.5403424 177.549446,26.1604775 177.549446,24.5379747 L177.549446,11.5504351 L184.645965,11.5504351 L184.645965,23.0595332 C184.645965,24.6668725 184.930278,25.9747115 185.498912,26.9830894 C186.067546,27.9914673 187.102445,28.4956487 188.603639,28.4956487 C190.08967,28.4956487 191.181431,27.9838857 191.878956,26.9603441 C192.57648,25.9368026 192.925237,24.5531469 192.925237,22.8093354 L192.925237,11.5504351 L200.044502,11.5504351 L200.044502,33.8635285 C200.044502,37.6847501 199.138491,40.4558524 197.326444,42.1769185 C195.514396,43.8979846 192.637151,44.7585047 188.69462,44.7585047 C186.61721,44.7585047 184.846889,44.542427 183.383604,44.110265 C181.920318,43.6781031 180.722414,43.0639874 179.789854,42.2678995 C178.857294,41.4718117 178.174943,40.5165206 177.742781,39.4019976 C177.310619,38.2874746 177.094541,37.0630341 177.094541,35.7286392 Z M203.765625,34 L203.765625,1.38330696 L212.477057,1.38330696 L221.188489,24.0830696 L229.80894,1.38330696 L238.3839,1.38330696 L238.3839,34 L231.014438,34 L231.014438,13.7794699 L223.986155,34 L218.390823,34 L211.135087,13.7794699 L211.135087,34 L203.765625,34 Z M241.923062,35.7286392 L248.905854,35.7286392 C248.936182,36.8204169 249.284939,37.7226362 249.952136,38.4353244 C250.619334,39.1480125 251.749003,39.5043513 253.341179,39.5043513 C254.827209,39.5043513 255.934134,39.0987316 256.661986,38.2874802 C257.389837,37.4762288 257.753758,36.1228998 257.753758,34.2274525 L257.753758,30.40625 C257.132051,31.6193362 256.184342,32.559464 254.910601,33.2266614 C253.636861,33.8938588 252.120526,34.2274525 250.361551,34.2274525 C248.814866,34.2274525 247.541144,33.9886298 246.540348,33.5109771 C245.539552,33.0333244 244.728313,32.4229995 244.106606,31.6799842 C243.393918,30.8156602 242.927645,29.8148791 242.707773,28.6776108 C242.487901,27.5403424 242.377967,26.1604775 242.377967,24.5379747 L242.377967,11.5504351 L249.474486,11.5504351 L249.474486,23.0595332 C249.474486,24.6668725 249.758799,25.9747115 250.327433,26.9830894 C250.896067,27.9914673 251.930966,28.4956487 253.43216,28.4956487 C254.91819,28.4956487 256.009952,27.9838857 256.707476,26.9603441 C257.405001,25.9368026 257.753758,24.5531469 257.753758,22.8093354 L257.753758,11.5504351 L264.873022,11.5504351 L264.873022,33.8635285 C264.873022,37.6847501 263.967012,40.4558524 262.154964,42.1769185 C260.342917,43.8979846 257.465671,44.7585047 253.523141,44.7585047 C251.445731,44.7585047 249.675409,44.542427 248.212124,44.110265 C246.748839,43.6781031 245.550934,43.0639874 244.618374,42.2678995 C243.685814,41.4718117 243.003463,40.5165206 242.571301,39.4019976 C242.139139,38.2874746 241.923062,37.0630341 241.923062,35.7286392 Z M268.594146,34 L268.594146,1.38330696 L288.496242,1.38330696 L288.496242,7.72923259 L276.14557,7.72923259 L276.14557,16.5316456 L288.496242,16.5316456 L288.496242,22.7183544 L276.14557,22.7183544 L276.14557,34 L268.594146,34 Z M290.033821,22.7638449 C290.033821,21.1565057 290.318134,19.6401706 290.886768,18.2147943 C291.455402,16.789418 292.278014,15.5384416 293.354628,14.4618275 C294.431242,13.3852135 295.73529,12.5284842 297.266812,11.8916139 C298.798333,11.2547437 300.542118,10.9363133 302.49822,10.9363133 C304.454321,10.9363133 306.201898,11.2547437 307.741001,11.8916139 C309.280104,12.5284842 310.584152,13.3852135 311.653184,14.4618275 C312.722217,15.5384416 313.537247,16.789418 314.098299,18.2147943 C314.659351,19.6401706 314.939873,21.1565057 314.939873,22.7638449 C314.939873,24.3711842 314.659351,25.8913101 314.098299,27.3242682 C313.537247,28.7572263 312.722217,30.0119936 311.653184,31.0886076 C310.584152,32.1652216 309.280104,33.0219509 307.741001,33.6588212 C306.201898,34.2956915 304.454321,34.6141218 302.49822,34.6141218 C300.542118,34.6141218 298.798333,34.2956915 297.266812,33.6588212 C295.73529,33.0219509 294.431242,32.1652216 293.354628,31.0886076 C292.278014,30.0119936 291.455402,28.7610171 290.886768,27.3356408 C290.318134,25.9102645 290.033821,24.3863478 290.033821,22.7638449 Z M297.153085,22.7638449 C297.153085,23.5675146 297.278183,24.3143096 297.528382,25.0042524 C297.778581,25.6941952 298.13492,26.3007292 298.597409,26.8238726 C299.059898,27.3470161 299.617151,27.7564265 300.269185,28.0521163 C300.921219,28.3478061 301.64906,28.4956487 302.452729,28.4956487 C303.256399,28.4956487 303.995612,28.3478061 304.670392,28.0521163 C305.345171,27.7564265 305.913796,27.3470161 306.376286,26.8238726 C306.838775,26.3007292 307.202695,25.697986 307.468058,25.015625 C307.73342,24.333264 307.8661,23.5826781 307.8661,22.7638449 C307.8661,21.9905025 307.73342,21.25508 307.468058,20.5575554 C307.202695,19.8600308 306.838775,19.2534968 306.376286,18.7379351 C305.913796,18.2223735 305.348962,17.812963 304.681764,17.5096915 C304.014567,17.2064199 303.271563,17.0547864 302.452729,17.0547864 C301.64906,17.0547864 300.921219,17.2064199 300.269185,17.5096915 C299.617151,17.812963 299.059898,18.2223735 298.597409,18.7379351 C298.13492,19.2534968 297.778581,19.8600308 297.528382,20.5575554 C297.278183,21.25508 297.153085,21.9905025 297.153085,22.7638449 Z M317.11432,34 L317.11432,11.5504351 L324.233584,11.5504351 L324.233584,14.8030063 C324.855291,13.5899201 325.803,12.6497924 327.076741,11.9825949 C328.350481,11.3153975 329.874398,10.9818038 331.648536,10.9818038 C333.195221,10.9818038 334.468943,11.2244174 335.469739,11.7096519 C336.470535,12.1948864 337.281774,12.8090021 337.903481,13.5520174 C338.616169,14.4163413 339.086233,15.4171225 339.313687,16.5543908 C339.54114,17.6916592 339.654866,19.0639424 339.654866,20.6712816 L339.654866,34 L332.535601,34 L332.535601,22.4909019 C332.535601,20.9138898 332.247498,19.6136325 331.671282,18.590091 C331.095066,17.5665495 330.079121,17.0547864 328.623418,17.0547864 C327.137387,17.0547864 326.034253,17.5665495 325.313983,18.590091 C324.593713,19.6136325 324.233584,20.9897065 324.233584,22.7183544 L324.233584,34 L317.11432,34 Z M341.624604,22.7638449 C341.624604,21.1110149 341.878591,19.5719349 342.38657,18.1465585 C342.89455,16.7211822 343.652718,15.4739966 344.661096,14.4049644 C345.669474,13.3359322 346.905287,12.4905754 348.368572,11.8688687 C349.831857,11.247162 351.511198,10.9363133 353.406646,10.9363133 C355.211111,10.9363133 356.83359,11.2168353 358.27413,11.7778877 C359.71467,12.33894 360.93911,13.1084801 361.947488,14.0865309 C362.955866,15.0645816 363.732988,16.2283688 364.278877,17.5779272 C364.824765,18.9274857 365.097706,20.3831673 365.097706,21.9450158 C365.097706,22.3847596 365.082542,22.7638433 365.052215,23.0822785 C365.021888,23.4007136 364.961235,23.8707775 364.870253,24.4924842 L348.789359,24.4924842 C348.789359,25.1748452 348.876548,25.8192876 349.05093,26.4258307 C349.225311,27.0323738 349.498251,27.5630911 349.869759,28.0179984 C350.241266,28.4729058 350.737866,28.8292445 351.359573,29.0870253 C351.981279,29.3448061 352.739447,29.4736946 353.634098,29.4736946 C354.907839,29.4736946 355.86313,29.2272902 356.5,28.7344739 C357.13687,28.2416576 357.576607,27.6389144 357.819225,26.9262263 L364.824763,26.9262263 C364.6428,27.9876767 364.259925,28.9808762 363.676127,29.9058544 C363.09233,30.8308327 362.337953,31.6420719 361.412975,32.3395965 C360.487996,33.0371211 359.381072,33.5905834 358.092168,34 C356.803264,34.4094166 355.347582,34.6141218 353.725079,34.6141218 C351.768978,34.6141218 350.036565,34.3108548 348.527789,33.7043117 C347.019013,33.0977686 345.752873,32.2562026 344.729331,31.1795886 C343.70579,30.1029746 342.932459,28.8444165 342.409316,27.4038766 C341.886172,25.9633367 341.624604,24.4166749 341.624604,22.7638449 Z M348.789359,20.3983386 L358.114913,20.3983386 C358.114913,19.0336166 357.686548,17.9532279 356.829806,17.15714 C355.973064,16.3610522 354.847185,15.9630142 353.452136,15.9630142 C352.117741,15.9630142 351.007026,16.3458888 350.119956,17.1116495 C349.232887,17.8774102 348.789359,18.9729623 348.789359,20.3983386 Z"/>
  </g>
</svg>
